<svg width="24" height="24" viewBox="0 0 24 24" fill="none" xmlns="http://www.w3.org/2000/svg">
<path fill-rule="evenodd" clip-rule="evenodd" d="M12 10C10.8954 10 10 10.8954 10 12C10 13.1046 10.8954 14 12 14C13.1046 14 14 13.1046 14 12C14 10.8954 13.1046 10 12 10ZM8 12C8 9.79086 9.79086 8 12 8C14.2091 8 16 9.79086 16 12C16 14.2091 14.2091 16 12 16C9.79086 16 8 14.2091 8 12Z" fill="#B3B3B3"/>
<path d="M5.74961 6.46045C7.43705 5.14943 9.59246 4 12 4C14.4075 4 16.5629 5.14943 18.2504 6.46045C19.9478 7.77919 21.2752 9.3416 22.049 10.3515C22.4145 10.8233 22.6128 11.4032 22.6128 12C22.6128 12.5968 22.4145 13.1767 22.049 13.6485C21.2752 14.6584 19.9478 16.2208 18.2504 17.5396C16.563 18.8506 14.4076 20 12 20L12 18C13.7745 18 15.501 17.1429 17.0234 15.9602C18.5344 14.7862 19.7437 13.369 20.4631 12.4299L20.4673 12.4245C20.5616 12.3031 20.6128 12.1537 20.6128 12C20.6128 11.8463 20.5616 11.6969 20.4673 11.5755L20.4631 11.5701C19.7437 10.631 18.5344 9.21377 17.0233 8.0398C15.501 6.85708 13.7744 6 12 6C10.2256 6 8.49897 6.85708 6.97666 8.0398C5.46562 9.21377 4.25631 10.631 3.53688 11.5701L3.53272 11.5755C3.43841 11.6969 3.38719 11.8463 3.38719 12C3.38719 12.1537 3.43839 12.3031 3.53271 12.4245L3.53686 12.4299C4.25629 13.369 5.4656 14.7862 6.97664 15.9602C8.49895 17.1429 10.2256 18 12 18L12 20C9.59245 20 7.43704 18.8506 5.7496 17.5396C4.05222 16.2208 2.72479 14.6584 1.95096 13.6485C1.58553 13.1767 1.38721 12.5968 1.38721 12C1.38721 11.4032 1.58554 10.8233 1.95098 10.3515C2.72481 9.3416 4.05223 7.77919 5.74961 6.46045Z" fill="#B3B3B3"/>
</svg>
