<svg width="24" height="24" viewBox="0 0 24 24" fill="none" xmlns="http://www.w3.org/2000/svg">
<path fill-rule="evenodd" clip-rule="evenodd" d="M6.97678 8.0398C5.46574 9.21377 4.25641 10.631 3.53698 11.5701L3.53292 11.5754L3.5329 11.5754C3.43847 11.697 3.38721 11.8466 3.38721 12.0005C3.38721 12.1544 3.43847 12.304 3.5329 12.4256L3.53673 12.4305L3.53672 12.4305C4.33424 13.4707 5.72362 15.0864 7.45207 16.3136C7.90239 16.6334 8.00824 17.2576 7.68851 17.7079C7.36877 18.1583 6.74451 18.2641 6.2942 17.9444C4.33396 16.5525 2.80408 14.7617 1.95126 13.6497C1.58564 13.1777 1.38721 12.5976 1.38721 12.0005C1.38721 11.4035 1.58558 10.8235 1.9511 10.3515C2.72493 9.3416 4.05235 7.77919 5.74973 6.46045C7.43718 5.14942 9.59259 4 12.0001 4C14.1625 4 16.1183 4.92709 17.7098 6.05913C18.1598 6.37926 18.2651 7.0036 17.945 7.45364C17.6249 7.90368 17.0005 8.009 16.5505 7.68887C15.1419 6.68691 13.5898 6 12.0001 6C10.2257 6 8.49909 6.85707 6.97678 8.0398Z" fill="#B3B3B3"/>
<path fill-rule="evenodd" clip-rule="evenodd" d="M10.4684 8.29192C10.9567 8.0909 11.4799 7.98855 12.008 7.99076C12.536 7.99297 13.0584 8.0997 13.5449 8.30481C14.0315 8.50991 14.4726 8.80931 14.8429 9.18576C15.2302 9.57949 15.225 10.2126 14.8312 10.5999C14.4375 10.9872 13.8043 10.982 13.4171 10.5882C13.2319 10.4 13.0113 10.2503 12.7681 10.1478C12.5248 10.0452 12.2636 9.99185 11.9996 9.99074C11.7356 9.98963 11.474 10.0408 11.2298 10.1413C10.9857 10.2418 10.7639 10.3897 10.5772 10.5763C10.3905 10.763 10.2426 10.9848 10.142 11.2289C10.0414 11.473 9.99018 11.7346 9.99123 11.9986C9.99227 12.2626 10.0456 12.5238 10.1481 12.7671C10.2506 13.0105 10.4002 13.2311 10.5884 13.4162C10.982 13.8036 10.9871 14.4368 10.5997 14.8304C10.2124 15.2241 9.57922 15.2291 9.18557 14.8418C8.80922 14.4714 8.50991 14.0302 8.30493 13.5436C8.09994 13.0569 7.99333 12.5346 7.99124 12.0065C7.98915 11.4785 8.09163 10.9553 8.29276 10.4671C8.4939 9.97886 8.7897 9.53529 9.16312 9.16196C9.53653 8.78863 9.98017 8.49293 10.4684 8.29192Z" fill="#B3B3B3"/>
<path fill-rule="evenodd" clip-rule="evenodd" d="M20.7071 3.29289C21.0976 3.68342 21.0976 4.31658 20.7071 4.70711L4.70711 20.7071C4.31658 21.0976 3.68342 21.0976 3.29289 20.7071C2.90237 20.3166 2.90237 19.6834 3.29289 19.2929L19.2929 3.29289C19.6834 2.90237 20.3166 2.90237 20.7071 3.29289Z" fill="#B3B3B3"/>
<path fill-rule="evenodd" clip-rule="evenodd" d="M18.876 8.27985C19.2737 7.89666 19.9067 7.90846 20.2899 8.30619C20.9137 8.95364 21.5005 9.63572 22.0475 10.3492C22.4134 10.8211 22.612 11.4012 22.6123 11.9983C22.6126 12.5956 22.4144 13.176 22.0489 13.6483C21.2751 14.6582 19.9476 16.2207 18.2502 17.5396C16.5627 18.8506 14.4073 20 11.9998 20H11.9952V20C11.2228 19.9965 10.4548 19.8828 9.71448 19.6624C9.18515 19.5049 8.88377 18.948 9.04133 18.4187C9.1989 17.8894 9.75574 17.588 10.2851 17.7456C10.8424 17.9115 11.4205 17.9971 12.002 18C13.7757 17.9993 15.5015 17.1424 17.0231 15.9602C18.5342 14.7862 19.7435 13.369 20.4629 12.4299L20.4667 12.425C20.5611 12.3032 20.6124 12.1535 20.6123 11.9993C20.6122 11.8452 20.5609 11.6954 20.4663 11.5737L20.4621 11.5684L20.4621 11.5684C19.9603 10.9137 19.4219 10.2879 18.8496 9.69381C18.4664 9.29608 18.4782 8.66303 18.876 8.27985Z" fill="#B3B3B3"/>
</svg>
